<svg xmlns="http://www.w3.org/2000/svg" version="1.1" xmlns:xlink="http://www.w3.org/1999/xlink" viewBox="0 0 200 200"><rect width="200" height="200" fill="url('#gradient')"></rect><defs><linearGradient id="gradient" gradientTransform="rotate(45 0.5 0.5)"><stop offset="0%" stop-color="#472027"></stop><stop offset="100%" stop-color="#192025"></stop></linearGradient></defs><g><g fill="#f3bd7d" transform="matrix(4.919135308246597,0,0,4.919135308246597,6.684272089560011,134.9548295710543)" stroke="#c06a3e" stroke-width="0.2"><path d="M13.12-7.47L13.12-6.82Q13.12-4.74 12.34-3.13Q11.57-1.53 10.15-0.67Q8.73 0.20 6.91 0.20Q5.10 0.20 3.69-0.64Q2.29-1.47 1.50-3.03Q0.71-4.58 0.67-6.59L0.67-6.59L0.67-7.39Q0.67-9.48 1.44-11.08Q2.21-12.68 3.64-13.54Q5.07-14.41 6.89-14.41L6.89-14.41Q8.70-14.41 10.12-13.55Q11.53-12.70 12.32-11.11Q13.11-9.52 13.12-7.47L13.12-7.47ZM9.63-6.76L9.63-7.41Q9.63-9.53 8.92-10.63Q8.21-11.73 6.89-11.73L6.89-11.73Q4.32-11.73 4.17-7.86L4.17-7.86L4.16-6.82Q4.16-4.73 4.85-3.60Q5.55-2.48 6.91-2.48L6.91-2.48Q8.21-2.48 8.92-3.58Q9.62-4.69 9.63-6.76L9.63-6.76ZM25.21-14.22L25.21-11.57L20.95-11.57L20.95 0L17.52 0L17.52-11.57L13.33-11.57L13.33-14.22L25.21-14.22ZM33.84-3.78L33.84-3.78Q33.84-4.53 33.31-4.95Q32.77-5.37 31.44-5.82Q30.10-6.27 29.25-6.69L29.25-6.69Q26.48-8.05 26.48-10.42L26.48-10.42Q26.48-11.60 27.17-12.50Q27.86-13.41 29.12-13.91Q30.38-14.41 31.95-14.41L31.95-14.41Q33.49-14.41 34.70-13.87Q35.92-13.32 36.59-12.31Q37.27-11.30 37.27-10L37.27-10L33.85-10Q33.85-10.87 33.32-11.35Q32.78-11.83 31.88-11.83L31.88-11.83Q30.96-11.83 30.42-11.42Q29.89-11.02 29.89-10.39L29.89-10.39Q29.89-9.84 30.48-9.40Q31.06-8.96 32.54-8.48Q34.01-8.01 34.96-7.46L34.96-7.46Q37.27-6.13 37.27-3.80L37.27-3.80Q37.27-1.93 35.86-0.87Q34.45 0.20 32.00 0.20L32.00 0.20Q30.27 0.20 28.87-0.42Q27.47-1.04 26.76-2.12Q26.05-3.20 26.05-4.61L26.05-4.61L29.49-4.61Q29.49-3.47 30.08-2.92Q30.67-2.38 32.00-2.38L32.00-2.38Q32.85-2.38 33.34-2.75Q33.84-3.12 33.84-3.78Z"></path></g></g></svg>